<?xml version="1.0" standalone="no"?>
<!DOCTYPE svg PUBLIC "-//W3C//DTD SVG 20010904//EN"
 "http://www.w3.org/TR/2001/REC-SVG-20010904/DTD/svg10.dtd">
<svg version="1.0" xmlns="http://www.w3.org/2000/svg"
 width="1434.000000pt" height="1300.000000pt" viewBox="0 0 1434.000000 1300.000000"
 preserveAspectRatio="xMidYMid meet">

<g transform="translate(0.000000,1300.000000) scale(0.100000,-0.100000)"
fill="#000000" stroke="none">
<path d="M3895 9922 c-101 -52 -238 -175 -326 -292 -96 -127 -185 -331 -209
-480 -6 -36 -17 -148 -25 -249 -16 -198 -32 -255 -81 -288 -13 -8 -24 -21 -24
-29 0 -12 57 -34 91 -34 8 0 37 -11 65 -25 55 -28 100 -86 134 -175 11 -30 27
-66 35 -80 l14 -25 1 25 c1 73 28 89 72 43 48 -52 78 -123 78 -185 0 -61 16
-88 51 -88 59 0 114 -58 153 -163 25 -68 38 -95 69 -152 9 -16 26 -50 38 -75
12 -25 30 -57 40 -72 43 -61 82 -154 89 -216 5 -38 15 -71 25 -81 17 -17 20
-15 50 34 18 30 48 9 78 -55 30 -65 54 -104 107 -170 24 -31 37 -60 45 -104
11 -60 11 -61 54 -75 31 -10 53 -27 82 -63 21 -27 39 -54 39 -59 0 -38 -93 5
-192 89 -27 23 -55 42 -62 42 -30 0 -156 71 -178 100 -12 18 -43 44 -68 58
-25 15 -71 51 -102 82 -45 44 -58 63 -64 96 l-6 42 -92 4 c-96 5 -154 21 -250
69 -173 88 -362 251 -438 379 -47 79 -93 222 -114 347 -15 93 -21 316 -10 391
3 18 2 42 -3 54 l-8 22 -16 -25 c-58 -90 -74 -533 -26 -699 21 -70 72 -186
101 -229 95 -143 323 -341 392 -341 13 0 58 -23 101 -51 83 -54 176 -103 265
-140 30 -12 89 -46 131 -75 42 -29 107 -67 145 -84 67 -30 126 -73 209 -152
22 -21 55 -46 72 -55 45 -25 180 -132 237 -190 49 -48 98 -133 110 -188 18
-84 24 -194 14 -259 -9 -60 -8 -71 6 -81 22 -17 20 -33 -10 -101 -47 -106 -47
-103 -19 -116 30 -14 33 -54 10 -132 -8 -28 -24 -84 -35 -123 -23 -79 -36 -93
-95 -93 -49 0 -52 -18 -14 -75 36 -54 39 -92 13 -161 -16 -41 -15 -46 2 -81
34 -72 13 -163 -60 -259 -20 -26 -36 -52 -36 -58 0 -6 17 -20 37 -31 67 -36
95 -87 143 -256 23 -85 53 -170 65 -190 57 -90 477 -438 530 -439 5 0 21 -9
35 -20 23 -18 80 -28 80 -14 0 3 -49 56 -110 116 -101 102 -122 128 -176 213
-34 54 -54 106 -64 167 -10 66 -14 74 -78 137 -57 57 -69 86 -81 210 -6 56
-14 119 -17 141 -9 53 9 59 76 25 48 -25 80 -27 80 -7 0 5 -14 24 -31 43 -34
38 -45 57 -90 149 -17 36 -36 76 -42 89 -17 35 -14 157 6 222 10 31 32 78 49
104 29 44 30 48 18 85 -8 23 -10 55 -6 80 6 41 67 173 85 184 5 3 14 -8 20
-24 5 -17 17 -30 25 -30 22 0 39 -38 32 -71 -4 -21 0 -34 13 -45 58 -50 69
-64 81 -107 8 -26 18 -47 23 -47 4 0 19 25 32 55 14 31 31 55 40 55 62 0 81
-247 34 -444 -10 -43 -19 -88 -19 -99 0 -17 2 -18 17 -6 28 23 79 149 104 254
21 88 24 125 23 305 0 184 -3 218 -26 328 -28 129 -73 262 -89 262 -5 0 -9
-19 -9 -43 0 -24 -9 -60 -21 -82 -36 -70 -38 -81 -23 -110 20 -39 5 -50 -42
-28 -48 22 -53 29 -55 73 0 19 -6 51 -13 70 -11 29 -17 34 -38 32 -28 -3 -39
18 -54 103 -4 22 -12 49 -18 60 -6 11 -11 52 -11 90 0 68 -1 70 -25 70 -50 0
-100 139 -70 196 11 20 45 26 55 9 12 -20 27 -10 22 16 -5 29 15 43 38 24 12
-10 14 -1 17 57 3 66 4 68 41 92 34 22 37 28 31 57 -4 24 0 43 15 67 12 19 21
48 21 64 0 28 32 86 66 120 18 18 18 13 -11 53 -35 47 -34 117 0 177 14 23 29
43 33 43 10 0 73 -67 96 -100 9 -13 16 -37 16 -52 0 -24 -4 -28 -28 -28 -43 0
-46 -11 -12 -41 24 -22 30 -36 30 -67 0 -43 -13 -92 -36 -134 -13 -24 -13 -31
1 -57 8 -17 15 -39 15 -49 0 -22 -41 -125 -51 -130 -3 -1 -14 -9 -24 -16 -17
-12 -15 -16 21 -49 21 -20 44 -37 50 -37 34 -1 55 -62 33 -101 -8 -15 -6 -27
11 -54 24 -40 25 -52 16 -215 -5 -88 -4 -129 4 -140 9 -11 13 -12 17 -2 18 44
42 -25 123 -346 56 -220 110 -386 134 -411 15 -14 16 -13 16 4 0 11 -5 38 -10
60 -5 22 -17 80 -25 129 -9 50 -25 110 -36 134 -15 32 -18 54 -14 85 4 26 0
71 -11 117 -34 151 -31 200 10 200 18 0 33 -13 58 -52 l33 -53 3 52 c3 54 24
85 43 66 15 -15 69 -178 69 -208 0 -17 -8 -26 -30 -34 -16 -5 -30 -14 -30 -19
0 -5 43 -76 96 -158 53 -82 105 -168 115 -191 10 -23 38 -72 62 -110 24 -37
68 -108 98 -156 30 -48 73 -118 96 -155 23 -37 45 -79 48 -93 3 -15 15 -35 27
-45 11 -11 29 -37 40 -59 12 -22 29 -51 39 -65 10 -14 27 -59 38 -101 11 -43
31 -102 45 -133 14 -31 26 -61 26 -67 0 -6 32 -45 71 -87 39 -43 84 -102 101
-132 17 -30 44 -74 60 -97 16 -23 49 -82 74 -130 26 -48 69 -124 98 -168 28
-44 58 -93 66 -110 8 -16 22 -39 31 -50 20 -24 84 -149 94 -185 15 -50 87
-182 96 -173 14 14 -54 225 -116 358 -13 28 -49 109 -80 180 -31 72 -62 144
-69 160 -8 17 -36 82 -64 145 -28 63 -73 156 -99 205 -96 179 -176 360 -213
480 -6 22 -17 54 -25 70 -7 17 -25 59 -40 95 -15 36 -33 79 -40 95 -7 17 -29
51 -48 77 -44 58 -85 136 -102 197 -15 52 -56 160 -68 179 -5 6 -21 12 -37 12
-42 0 -53 23 -95 197 -34 142 -38 152 -64 161 -24 9 -30 20 -52 103 -18 72
-24 120 -24 204 0 110 0 110 -25 113 -38 5 -43 16 -26 57 20 47 20 64 0 104
-23 45 -14 111 21 157 21 27 26 42 21 66 -6 32 4 60 36 95 15 15 19 31 16 53
-6 37 10 47 42 30 29 -15 32 -10 22 36 -7 32 -5 47 15 88 l24 48 57 -7 56 -7
-52 47 c-29 26 -55 57 -58 70 -6 23 10 63 51 130 31 50 34 81 6 64 -10 -7 -26
-9 -36 -5 -15 5 -17 14 -12 55 6 52 29 98 82 168 34 45 35 58 8 98 -18 28 -16
52 12 139 14 42 25 91 25 109 1 42 27 98 88 190 49 71 56 86 53 116 -1 11 -5
11 -19 -2 -44 -40 -60 -13 -105 171 -52 207 -106 311 -256 485 -78 90 -109
110 -96 60 7 -28 32 -74 106 -193 72 -116 121 -249 150 -415 29 -170 22 -265
-22 -265 -10 0 -19 4 -19 8 0 5 -10 18 -21 31 -34 37 -45 14 -30 -66 12 -64
11 -73 -13 -150 -25 -77 -50 -113 -88 -125 -7 -3 -13 -23 -14 -47 -5 -104
-134 -129 -134 -26 0 26 -11 48 -46 90 -33 41 -53 80 -74 143 -50 155 -55 189
-35 268 9 38 25 84 36 102 25 44 24 55 -13 120 -30 53 -31 59 -35 201 -2 80
-9 151 -14 158 -6 6 -26 17 -46 24 -27 9 -39 21 -55 58 -23 55 -41 76 -91 108
-43 27 -76 88 -101 186 -19 72 -20 74 -63 92 -35 15 -36 16 -29 61 5 37 2 51
-14 71 -24 31 -25 49 -3 116 20 64 49 110 108 177 52 59 55 84 9 88 -27 3 -38
-5 -77 -48 -26 -29 -76 -96 -112 -150 -80 -119 -84 -139 -73 -355 10 -173 14
-185 69 -185 38 0 53 -23 64 -99 10 -63 11 -66 44 -77 62 -20 92 -72 106 -186
7 -54 26 -78 59 -78 36 0 43 -18 50 -110 3 -47 9 -113 13 -147 10 -72 8 -83
-17 -83 -20 0 -91 94 -111 147 -6 15 -19 37 -29 48 -10 11 -30 45 -44 76 -28
61 -59 95 -75 84 -17 -10 -13 -37 11 -75 12 -19 36 -62 53 -95 17 -33 55 -100
83 -150 29 -49 52 -100 52 -113 0 -27 16 -97 37 -164 9 -30 21 -49 35 -53 28
-10 44 -57 52 -152 6 -82 6 -83 -17 -83 -13 0 -27 4 -32 8 -6 4 -37 18 -70 31
-33 12 -70 28 -83 34 -17 8 -28 8 -42 -1 -11 -7 -26 -12 -34 -12 -21 0 -72 46
-116 104 -21 28 -57 74 -79 103 -22 29 -47 65 -55 80 -44 83 -279 340 -406
444 -122 99 -333 220 -352 201 -15 -15 -4 -27 65 -74 208 -139 378 -332 496
-563 56 -108 65 -135 71 -197 6 -65 12 -81 54 -143 60 -90 82 -161 65 -213
-23 -73 -66 -92 -116 -52 -15 12 -41 20 -63 20 -48 0 -99 34 -128 88 -19 33
-29 42 -51 42 -25 0 -181 73 -245 115 -16 10 -39 35 -52 56 -17 27 -36 41 -71
53 -29 10 -61 31 -82 54 -45 50 -141 202 -141 224 0 24 27 23 231 -2 89 -12
172 -19 183 -17 35 6 -39 34 -114 42 -87 10 -240 68 -318 121 -85 59 -318 250
-337 277 -21 29 -19 63 5 103 l21 33 -21 19 c-11 10 -39 25 -63 32 -58 17
-121 63 -148 107 -22 35 -24 49 -23 173 0 152 16 225 80 372 73 168 225 356
357 443 53 35 74 65 45 65 -7 -1 -53 -22 -103 -48z m1562 -2131 c107 -36 167
-61 210 -86 34 -21 40 -34 23 -51 -7 -7 -4 -19 10 -36 44 -56 11 -108 -67
-108 -123 2 -241 93 -283 219 -10 31 -11 47 -2 66 6 14 14 25 16 25 3 0 45
-13 93 -29z m-1374 -48 c53 -82 60 -98 44 -112 -23 -18 -98 52 -118 111 -20
55 -18 68 11 68 12 0 34 -24 63 -67z m1257 -232 c18 -35 11 -45 -15 -21 -13
12 -22 27 -19 31 9 15 23 10 34 -10z m595 -131 c16 -18 17 -25 7 -54 -7 -18
-12 -40 -12 -49 0 -9 -15 -30 -32 -47 l-33 -31 28 -20 c38 -29 35 -62 -7 -96
-32 -25 -34 -30 -29 -72 4 -40 1 -52 -26 -91 -29 -43 -29 -45 -10 -52 13 -5
19 -14 16 -25 -3 -10 -11 -42 -17 -71 -7 -30 -19 -56 -26 -59 -19 -7 -18 -22
6 -68 21 -40 20 -85 -2 -112 -14 -18 -68 -15 -99 5 -79 52 -100 69 -105 90
-10 35 4 72 26 72 31 0 33 18 7 63 -22 37 -24 52 -22 132 1 50 5 97 9 106 4 8
27 32 51 53 49 40 58 60 23 47 -13 -4 -29 -6 -35 -4 -22 8 -14 60 13 93 23 27
25 34 15 57 -15 34 -7 40 32 24 18 -8 48 -14 67 -15 34 -1 35 0 38 41 2 33 10
48 38 72 41 36 54 38 79 11z m-1185 -30 c70 -35 90 -37 90 -10 0 11 5 20 11
20 16 0 74 -63 99 -108 25 -45 60 -72 60 -46 0 9 6 14 13 12 16 -6 16 -44 -1
-40 -8 1 -3 -16 13 -48 27 -53 32 -99 13 -118 -7 -7 -29 -12 -50 -12 -37 0
-38 -1 -38 -37 0 -27 -10 -52 -36 -87 -33 -44 -38 -48 -67 -42 -39 8 -58 32
-51 63 5 19 -5 34 -53 81 -76 74 -116 144 -110 193 3 20 1 43 -4 50 -5 8 -2
20 8 32 16 16 16 20 0 46 -48 81 -2 104 103 51z m288 -1412 c17 -17 15 -59 -4
-86 -22 -32 -34 -19 -34 37 0 60 12 75 38 49z"/>
<path d="M10472 9879 c68 -54 217 -207 275 -284 45 -59 112 -188 153 -295 50
-130 69 -358 37 -442 -18 -47 -85 -118 -111 -118 -24 0 -107 -41 -113 -56 -3
-8 4 -25 16 -38 35 -37 28 -84 -21 -142 -74 -86 -233 -220 -298 -252 -14 -6
-32 -16 -40 -21 -32 -19 -157 -71 -172 -71 -15 0 -126 -25 -158 -36 -13 -4
-13 -6 0 -14 19 -12 96 -12 180 -1 36 5 92 11 125 13 56 3 60 2 63 -20 2 -13
-8 -40 -21 -61 -14 -21 -39 -64 -55 -97 -31 -60 -63 -87 -136 -118 -37 -15
-40 -22 -51 -108 -6 -50 -41 -90 -105 -123 -37 -19 -37 -29 -3 -78 23 -34 27
-49 27 -111 1 -62 -4 -83 -40 -163 -41 -90 -42 -94 -37 -182 4 -72 1 -97 -13
-127 -17 -36 -18 -36 -62 -30 -45 6 -46 6 -95 -49 -45 -51 -53 -56 -85 -53
-31 3 -42 11 -74 57 -47 67 -56 119 -32 192 9 29 26 66 36 81 11 15 22 43 25
61 4 28 1 37 -19 53 -34 27 -48 56 -48 101 0 32 -7 46 -36 74 -104 99 -107
237 -8 361 32 40 34 46 28 94 -8 65 3 99 74 243 103 208 220 350 417 506 85
68 95 77 95 91 0 16 -36 19 -45 4 -4 -6 -27 -22 -53 -35 -48 -26 -149 -89
-218 -136 -80 -54 -306 -296 -379 -404 -12 -16 -50 -78 -85 -137 -35 -60 -85
-128 -110 -153 -25 -25 -60 -60 -78 -78 l-32 -32 -45 24 c-49 26 -61 51 -51
104 4 17 6 46 6 64 0 27 5 34 35 49 20 9 37 25 40 38 2 11 9 53 15 91 7 39 18
84 26 100 30 61 45 91 59 115 7 14 35 66 60 117 26 51 53 97 61 104 15 13 19
45 5 53 -9 6 -62 -72 -84 -127 -19 -43 -96 -137 -114 -137 -8 0 -13 14 -13 36
0 34 -1 35 -29 29 -29 -6 -29 -6 -36 47 -10 80 -4 112 21 116 31 4 49 29 64
87 7 28 25 68 40 90 15 22 35 52 44 68 11 17 25 27 41 27 21 0 25 7 35 58 17
84 26 101 57 108 15 3 33 7 39 9 18 5 27 96 19 184 -5 60 -3 86 9 115 20 48
20 64 0 101 -9 17 -26 48 -37 70 -42 84 -196 245 -234 245 -30 0 -29 -4 10
-59 36 -51 127 -238 127 -263 0 -8 -9 -23 -21 -34 -17 -15 -20 -26 -14 -62 7
-48 -5 -72 -36 -72 -23 0 -33 -24 -54 -123 -14 -70 -16 -74 -89 -142 -58 -54
-77 -79 -85 -112 -11 -39 -15 -43 -59 -55 l-47 -14 0 -91 c0 -115 -13 -136
-54 -84 -40 53 -169 178 -235 228 -64 49 -192 123 -214 123 -21 0 14 -43 143
-174 64 -66 135 -144 159 -175 53 -71 126 -192 126 -212 0 -8 11 -38 25 -66
13 -29 27 -80 31 -113 6 -51 4 -61 -10 -66 -11 -4 -27 3 -45 20 -29 28 -61 34
-61 12 0 -8 13 -43 30 -78 44 -93 38 -213 -15 -268 -21 -22 -26 -36 -25 -71 3
-71 1 -77 -22 -85 -13 -4 -58 -6 -100 -5 -88 3 -95 -5 -52 -50 31 -33 26 -45
-26 -59 -45 -12 -49 -24 -19 -56 28 -30 19 -68 -22 -89 -27 -15 -37 -15 -95
-2 -42 10 -80 27 -109 49 -50 38 -101 116 -110 170 -11 57 -25 35 -25 -36 0
-70 18 -132 55 -188 29 -43 31 -58 10 -58 -8 0 -15 -4 -15 -9 0 -11 103 -114
159 -159 44 -36 51 -55 24 -72 -17 -10 -16 -12 7 -28 59 -40 90 -101 90 -176
0 -15 8 -30 20 -36 38 -20 52 -64 40 -127 -12 -65 -2 -87 28 -60 44 40 72 7
72 -84 0 -27 -5 -58 -12 -69 -10 -15 -9 -24 2 -44 23 -44 13 -85 -48 -205 -55
-107 -82 -181 -67 -181 3 0 17 12 30 28 22 25 24 26 31 8 12 -30 -12 -155 -34
-180 -23 -24 -63 -117 -99 -226 -32 -99 -35 -103 -71 -116 -44 -14 -49 -21
-66 -87 -8 -32 -24 -73 -35 -90 -10 -18 -29 -68 -41 -112 -29 -103 -33 -111
-69 -118 -36 -7 -65 -53 -90 -139 -10 -35 -29 -85 -41 -113 -12 -27 -33 -74
-46 -103 -13 -29 -24 -57 -24 -63 0 -7 -19 -44 -42 -83 -54 -90 -147 -278
-186 -376 -44 -109 -107 -252 -157 -355 -50 -104 -155 -366 -155 -387 0 -8
-13 -52 -30 -98 -29 -82 -38 -140 -22 -140 7 0 36 58 81 165 101 236 292 567
421 730 134 169 153 203 191 346 17 62 37 126 46 143 26 51 100 160 124 181
29 27 97 127 116 172 20 49 91 153 109 160 7 3 30 39 50 81 20 43 53 100 73
127 21 28 50 68 66 90 16 22 55 70 87 108 68 82 73 101 24 92 -19 -4 -36 -2
-40 3 -13 22 16 105 60 169 67 100 83 114 118 111 25 -3 33 2 45 27 8 16 17
52 19 80 3 27 13 61 23 74 11 13 19 31 19 41 0 23 38 70 56 70 11 0 14 -17 15
-77 l1 -78 22 66 c12 36 32 79 44 96 17 24 22 45 22 97 0 61 2 67 30 88 37 27
38 45 5 58 -23 9 -24 13 -19 53 6 40 4 45 -16 50 -24 6 -24 3 -3 164 4 36 2
43 -19 54 -36 19 -38 28 -32 130 5 67 3 98 -5 103 -6 4 -16 -4 -23 -21 -40
-97 -61 -139 -86 -171 -30 -38 -59 -132 -47 -152 3 -5 15 -10 25 -10 28 0 40
-30 41 -102 2 -106 -15 -158 -52 -158 -11 0 -19 -5 -19 -10 0 -6 -12 -16 -27
-22 -16 -7 -36 -21 -45 -32 -28 -34 -45 -4 -53 92 -6 79 -5 84 14 89 34 9 24
39 -29 94 -27 28 -50 57 -50 64 0 7 14 18 30 24 17 5 30 15 30 20 0 18 26 12
45 -9 23 -26 32 -25 40 3 4 12 19 38 34 57 14 19 36 57 48 83 36 77 28 100
-18 51 -44 -47 -74 -57 -130 -43 -43 11 -51 11 -67 -4 -40 -37 -82 -14 -118
64 -17 37 -23 61 -18 84 4 24 2 34 -10 38 -19 7 -22 37 -3 37 6 0 29 -5 50
-11 55 -15 71 0 51 48 -19 44 -12 77 26 114 49 49 106 32 117 -36 4 -28 1 -43
-16 -65 -11 -16 -21 -39 -21 -50 0 -21 60 -149 70 -150 3 0 12 21 19 48 7 26
35 81 63 122 59 87 98 165 98 198 0 19 -3 21 -19 12 -24 -12 -49 -4 -55 18
-28 99 -10 163 57 209 55 37 120 51 143 32 21 -17 14 -82 -16 -143 l-22 -46
36 -40 c39 -44 45 -73 20 -108 -15 -22 -14 -27 5 -72 12 -27 21 -64 21 -82 0
-18 9 -62 20 -96 23 -73 25 -129 8 -168 -9 -19 -10 -28 -2 -31 34 -11 45 -32
55 -97 13 -96 38 -124 55 -64 17 57 74 42 74 -19 0 -12 14 -38 30 -56 42 -48
40 -86 -5 -126 -45 -40 -86 -41 -113 -4 -26 36 -42 22 -42 -36 0 -33 -6 -56
-20 -74 -11 -14 -20 -31 -20 -38 0 -7 -11 -31 -25 -55 -14 -23 -30 -74 -37
-112 -10 -62 -10 -72 5 -87 9 -9 17 -22 17 -28 0 -20 -30 -188 -45 -257 -45
-200 -33 -477 31 -698 23 -78 68 -182 79 -182 6 0 4 10 -24 130 -11 47 -25
142 -32 212 -11 111 -10 133 4 185 10 33 17 82 17 111 0 28 4 53 9 57 5 3 13
30 16 60 6 44 11 55 25 55 22 0 28 27 29 125 1 83 7 126 31 220 10 39 21 82
24 97 5 20 11 25 25 21 14 -4 24 3 34 24 35 66 83 81 100 30 7 -22 3 -46 -18
-108 -27 -80 -27 -109 -2 -109 36 0 63 -169 53 -342 l-5 -107 27 -3 c36 -4 68
-64 87 -163 21 -110 19 -138 -11 -175 l-27 -31 29 -60 c60 -127 21 -276 -111
-424 -36 -40 -65 -77 -65 -84 0 -16 44 -14 87 4 19 8 39 15 43 15 18 0 17 -33
-6 -138 -25 -120 -36 -141 -124 -237 -25 -27 -51 -63 -57 -80 -6 -16 -18 -50
-27 -75 -25 -72 -154 -216 -311 -348 -26 -22 -19 -43 13 -36 35 9 157 74 238
128 170 113 260 176 315 221 40 33 86 107 104 169 40 136 79 192 166 237 22
11 39 25 39 32 0 8 -18 48 -40 91 -47 91 -53 147 -19 191 20 24 21 31 11 76
-13 57 -5 89 35 131 32 34 26 51 -24 66 -53 16 -60 32 -98 212 -20 99 -19 117
5 125 14 4 20 15 20 35 0 16 -4 31 -9 34 -11 7 -41 98 -41 125 0 11 5 23 10
26 6 3 10 -2 10 -11 0 -10 2 -15 5 -13 2 3 0 34 -5 69 -29 205 0 396 74 493
33 43 210 199 242 212 13 5 56 45 95 88 56 61 88 86 148 116 42 22 108 63 146
93 39 30 104 70 146 90 63 29 190 109 278 175 10 7 32 15 49 17 61 7 221 168
302 304 128 217 161 527 95 892 -27 147 -61 238 -81 218 -3 -4 1 -80 11 -170
18 -176 13 -316 -21 -503 -31 -174 -100 -304 -236 -443 -154 -158 -354 -256
-470 -231 -67 15 -81 8 -73 -35 5 -22 1 -44 -8 -62 -20 -38 -122 -144 -139
-144 -7 0 -26 -20 -43 -44 -34 -50 -91 -91 -150 -108 -22 -6 -58 -28 -80 -48
-22 -21 -62 -52 -90 -70 -68 -45 -137 -102 -217 -177 -36 -35 -73 -63 -81 -63
-30 0 -40 28 -35 95 6 63 5 64 -21 67 -42 5 -41 48 3 81 19 15 38 36 41 47 7
22 72 60 103 60 11 0 26 -10 34 -21 l14 -21 49 31 c56 35 73 38 117 15 29 -15
32 -15 44 0 7 11 10 39 7 80 -5 60 -4 67 36 134 22 38 52 106 66 150 14 44 32
86 41 93 14 11 20 9 45 -19 16 -18 35 -32 43 -32 19 0 27 39 20 92 -8 55 11
148 42 209 12 25 32 70 43 100 65 178 90 250 96 280 12 55 64 117 110 131 22
6 45 15 51 20 6 5 13 45 16 91 3 67 10 92 33 136 31 56 67 83 86 64 6 -6 13
-29 16 -52 6 -47 18 -53 26 -13 37 180 76 238 181 267 70 20 116 41 116 55 0
5 -16 24 -35 41 -42 39 -61 99 -81 258 -7 64 -19 157 -25 206 -22 176 -104
391 -207 542 -96 142 -255 282 -394 348 -98 46 -112 44 -46 -6z m82 -2195 c3
-8 1 -36 -5 -62 -16 -73 -106 -154 -122 -109 -8 24 56 156 88 179 16 12 32 9
39 -8z m-835 -1586 c13 -35 22 -118 12 -118 -17 0 -57 112 -46 130 10 17 25
11 34 -12z"/>
<path d="M6820 8888 c0 -15 11 -62 25 -105 59 -190 95 -412 95 -599 0 -73 -3
-94 -17 -105 -13 -11 -17 -11 -20 -1 -11 32 -23 -6 -23 -73 0 -97 -25 -196
-62 -244 -10 -13 -18 -40 -18 -61 0 -60 -55 -89 -111 -60 -30 17 -36 -15 -10
-51 78 -105 82 -115 85 -201 3 -92 -12 -134 -51 -144 -12 -3 -34 -23 -49 -45
-21 -30 -33 -39 -56 -39 -39 0 -68 16 -68 38 1 25 35 120 64 176 14 27 26 58
26 69 0 17 -3 16 -31 -7 -57 -48 -154 -23 -196 50 -28 52 -44 140 -33 190 8
39 8 39 -8 15 -47 -68 -64 -191 -37 -266 19 -52 19 -59 -2 -50 -10 4 -24 9
-30 12 -21 8 -15 -23 15 -90 49 -108 49 -127 0 -146 -23 -9 -25 -13 -21 -53 5
-41 2 -46 -51 -105 -43 -47 -56 -68 -56 -92 0 -24 -12 -44 -50 -84 -47 -49
-68 -83 -57 -93 2 -2 15 5 30 16 30 24 57 26 57 4 0 -29 -30 -119 -49 -148
-19 -29 -19 -30 1 -66 l21 -37 -21 -102 c-29 -134 -29 -263 -1 -245 5 3 9 14
9 25 0 26 16 24 34 -3 8 -13 53 -138 99 -278 101 -305 124 -365 178 -475 43
-88 63 -109 49 -52 -15 64 -72 264 -102 358 -19 61 -28 106 -24 122 3 14 -2
52 -13 89 -71 231 -81 343 -39 448 22 56 25 75 21 137 -10 134 14 224 55 208
24 -9 32 16 16 53 -29 70 -14 99 57 112 36 7 45 4 74 -21 18 -16 39 -29 48
-29 43 0 47 -80 5 -112 -21 -15 -21 -18 -6 -35 28 -31 32 -70 13 -113 -18 -40
-18 -40 8 -77 14 -21 35 -65 46 -98 30 -89 48 -130 65 -145 14 -11 16 -1 16
92 0 98 2 107 30 151 36 56 36 57 10 99 -28 46 -25 87 10 140 23 34 29 53 24
72 -4 17 1 38 17 65 12 23 20 43 17 46 -3 4 -23 -1 -43 -9 -43 -18 -91 -21
-100 -6 -12 19 -84 50 -115 50 -45 0 -38 34 7 38 22 2 39 12 53 33 15 20 30
29 50 29 19 0 33 8 44 25 27 40 54 33 67 -19 16 -65 32 -64 68 6 23 46 31 74
31 115 0 35 9 74 25 113 30 72 31 80 5 80 -17 0 -20 7 -20 48 0 53 22 128 53
180 17 29 18 38 7 71 -7 21 -10 58 -7 82 21 186 33 254 58 326 33 93 36 128
13 141 -12 7 -24 53 -45 179 -41 253 -76 377 -130 463 -27 42 -29 43 -29 18z
m-270 -1765 c0 -20 -28 -53 -47 -53 -17 0 -17 20 3 48 18 26 44 29 44 5z"/>
<path d="M7630 8874 c0 -6 32 -66 70 -133 99 -172 123 -223 191 -395 81 -205
91 -309 23 -245 -28 26 -30 18 -8 -42 8 -24 18 -87 21 -140 5 -79 3 -102 -12
-133 -14 -29 -16 -44 -8 -70 19 -62 -25 -108 -83 -85 -37 14 -41 4 -14 -33 22
-30 22 -32 5 -45 -11 -7 -25 -13 -32 -13 -17 0 -16 -18 2 -50 19 -34 18 -47
-5 -70 -13 -13 -33 -20 -56 -20 -31 0 -45 8 -84 48 -32 31 -52 61 -59 90 -7
23 -17 42 -23 42 -17 0 -1 -135 22 -181 17 -32 18 -42 8 -58 -13 -21 2 -46 68
-117 73 -78 70 -73 49 -88 -18 -13 -17 -15 8 -40 39 -39 47 -59 47 -116 0 -37
5 -57 20 -72 11 -12 20 -30 20 -40 0 -10 -9 -36 -20 -58 -21 -42 -26 -75 -11
-85 5 -3 16 3 23 13 7 10 23 24 34 30 30 16 46 -5 52 -69 4 -41 1 -56 -17 -79
-26 -36 -26 -41 -1 -63 11 -9 20 -25 20 -36 0 -24 -29 -94 -74 -181 -19 -36
-37 -83 -41 -105 -4 -22 -9 -48 -12 -57 -8 -31 21 -20 36 13 8 19 19 29 30 27
13 -3 17 -21 21 -98 3 -52 2 -147 -2 -210 -20 -352 -20 -558 2 -545 9 6 14 44
30 245 14 167 29 250 45 250 16 0 25 -46 25 -131 0 -37 4 -70 9 -73 9 -6 18
38 46 242 22 154 76 322 105 322 13 0 22 -35 19 -75 -2 -19 -1 -37 3 -40 9 -9
25 23 59 118 45 125 98 180 138 143 16 -15 19 -14 29 9 7 14 12 37 12 51 0 33
27 84 45 84 23 0 35 -34 35 -99 0 -62 6 -91 21 -91 4 0 11 17 15 38 7 39 33
98 61 144 16 25 16 30 -6 101 -22 69 -23 81 -12 151 l11 77 -30 38 c-18 21
-33 55 -36 77 -9 61 -23 90 -52 105 -37 18 -72 50 -72 65 0 31 -52 126 -92
170 -23 26 -63 55 -88 66 -62 27 -100 65 -100 101 0 16 18 74 40 128 l40 100
-32 40 c-27 34 -32 48 -33 102 -1 34 -6 97 -10 140 -6 67 -4 94 20 197 16 66
25 123 22 127 -4 3 -15 -1 -25 -10 -10 -10 -22 -17 -27 -17 -10 0 -31 27 -53
70 -119 230 -182 336 -253 425 -55 70 -119 133 -119 119z m447 -1677 c24 -26
46 -61 53 -86 10 -37 13 -41 36 -35 17 5 34 -1 60 -21 45 -35 64 -79 57 -133
-5 -37 -2 -44 31 -75 43 -41 44 -52 12 -96 -18 -24 -23 -41 -20 -61 6 -28 -16
-60 -41 -60 -8 0 -19 -9 -25 -20 -7 -13 -21 -20 -41 -20 -23 0 -32 -6 -39 -26
-7 -19 -16 -25 -33 -22 -17 2 -24 12 -30 48 -5 25 -9 65 -10 90 -2 40 1 45 21
48 36 5 23 31 -41 80 -34 26 -57 51 -57 62 0 11 -17 36 -38 57 -28 28 -41 50
-46 82 -3 24 -14 57 -22 73 -9 17 -13 41 -10 53 4 15 0 30 -10 40 -24 24 -9
30 30 11 47 -22 49 -21 41 25 l-7 42 43 -6 c35 -5 52 -15 86 -50z"/>
<path d="M7260 8753 c4 -21 23 -99 42 -173 51 -195 67 -275 95 -451 4 -26 0
-40 -12 -53 -15 -14 -20 -15 -27 -4 -6 8 -8 1 -3 -22 14 -82 17 -188 5 -240
-6 -30 -14 -77 -16 -105 -3 -27 -10 -61 -17 -73 -10 -21 -16 -23 -49 -18 -41
7 -49 -6 -26 -43 9 -15 9 -23 -1 -35 -8 -9 -19 -16 -27 -16 -20 0 -25 -16 -13
-44 15 -32 4 -72 -22 -87 -45 -24 -119 36 -140 114 -22 83 -25 86 -39 43 -8
-25 -10 -59 -6 -95 12 -104 12 -106 -3 -103 -20 4 -10 -40 30 -126 l34 -74
-24 -19 c-21 -17 -22 -22 -12 -47 10 -23 8 -36 -9 -75 -11 -25 -25 -49 -31
-53 -7 -4 -9 -21 -6 -40 5 -29 0 -41 -38 -85 -45 -53 -62 -89 -41 -89 7 0 21
9 31 20 21 23 50 26 58 7 8 -22 -15 -120 -35 -150 -19 -27 -19 -27 2 -63 l22
-35 -32 -86 c-44 -116 -60 -179 -60 -236 0 -56 16 -60 34 -8 31 92 53 20 136
-444 12 -66 37 -178 55 -249 48 -185 74 -197 40 -19 -43 230 -57 373 -35 373
14 0 25 -26 50 -115 32 -118 43 -118 36 0 -4 55 -11 134 -17 176 -11 85 2 263
21 299 22 41 47 6 49 -67 1 -36 15 -43 29 -15 5 9 15 57 22 106 15 98 39 145
84 161 23 8 30 6 42 -9 19 -27 24 -18 34 61 7 52 14 72 32 86 22 18 23 18 39
-2 9 -11 20 -46 23 -78 10 -90 17 -114 29 -110 7 2 15 33 18 68 4 51 12 75 37
111 37 54 37 54 15 120 -14 44 -15 60 -4 110 12 61 8 83 -14 74 -25 -9 -37 19
-26 61 16 58 14 71 -18 87 -25 13 -29 22 -34 76 -4 34 -10 66 -13 72 -3 5 -16
-12 -29 -39 -20 -43 -58 -93 -71 -93 -2 0 2 13 11 30 24 46 18 50 -31 23 -37
-21 -54 -24 -90 -19 -32 4 -54 1 -76 -10 -50 -26 -61 -14 -54 59 3 34 6 74 6
88 1 25 3 27 40 22 l40 -6 0 49 c0 53 29 114 55 114 34 0 47 -82 19 -125 -13
-20 -13 -30 -3 -67 7 -24 18 -49 25 -57 10 -11 13 -9 19 10 4 13 22 54 41 91
18 37 39 87 45 112 11 43 10 47 -15 76 -32 38 -34 92 -10 204 16 71 16 77 -1
103 -26 38 -32 301 -10 406 19 92 19 127 0 127 -19 0 -29 21 -50 100 -66 255
-124 433 -149 458 -11 12 -12 8 -6 -25z m161 -1822 c-17 -31 -13 -49 11 -53
32 -4 45 -81 20 -118 -9 -14 -19 -41 -22 -60 -4 -29 -10 -35 -38 -41 -19 -4
-40 -16 -48 -28 -8 -12 -26 -21 -39 -21 -15 0 -31 -10 -41 -25 -9 -15 -26 -25
-39 -25 -21 0 -23 5 -30 81 -4 44 -3 85 1 89 5 5 23 10 39 12 39 4 38 17 -8
68 -45 50 -45 74 0 78 17 2 37 10 43 18 16 18 39 18 46 -1 9 -23 22 -18 66 28
40 41 61 40 39 -2z"/>
</g>
</svg>
