<?xml version="1.0" standalone="no"?>
<!DOCTYPE svg PUBLIC "-//W3C//DTD SVG 20010904//EN"
 "http://www.w3.org/TR/2001/REC-SVG-20010904/DTD/svg10.dtd">
<svg version="1.0" xmlns="http://www.w3.org/2000/svg"
 width="861.000000pt" height="661.000000pt" viewBox="0 0 861.000000 661.000000"
 preserveAspectRatio="xMidYMid meet">

<g transform="translate(0.000000,661.000000) scale(0.100000,-0.100000)"
fill="#000000" stroke="none">
<path d="M875 6496 c-66 -44 -220 -204 -274 -285 -123 -182 -182 -362 -196
-596 -15 -246 -30 -315 -79 -368 -14 -15 -26 -30 -26 -31 0 -7 34 -17 83 -27
29 -5 65 -22 89 -41 43 -34 98 -111 98 -137 0 -9 7 -24 14 -34 12 -16 18 -17
38 -6 29 16 47 13 76 -14 37 -34 71 -110 81 -182 5 -37 15 -72 21 -80 6 -7 30
-18 53 -24 54 -13 78 -39 117 -126 39 -87 47 -97 69 -86 12 7 27 3 49 -11 18
-11 32 -23 32 -27 0 -4 18 -35 40 -69 45 -69 52 -112 20 -112 -12 0 -32 7 -45
16 -33 21 -32 5 2 -49 48 -75 72 -134 83 -204 13 -82 23 -94 46 -59 12 20 24
26 43 24 21 -2 34 -18 72 -91 26 -48 65 -111 86 -140 54 -71 63 -90 63 -132 0
-32 4 -38 38 -51 89 -37 173 -164 108 -164 -24 0 -190 103 -215 133 -7 9 -19
17 -25 17 -29 0 -142 65 -189 108 -29 27 -65 56 -82 65 -16 8 -58 44 -92 80
-50 51 -63 72 -63 96 l0 31 -66 0 c-83 0 -170 22 -254 63 -238 119 -459 334
-511 497 -4 14 -17 49 -28 79 -31 83 -54 251 -55 408 -1 79 -2 143 -3 143 -21
0 -52 -206 -53 -342 0 -291 82 -501 270 -685 93 -90 175 -148 231 -163 22 -6
85 -41 140 -77 55 -36 136 -80 178 -98 110 -46 158 -72 216 -115 27 -20 88
-56 135 -78 57 -28 111 -65 167 -114 44 -40 101 -85 125 -100 23 -15 70 -49
103 -75 191 -153 245 -254 245 -462 0 -56 6 -102 15 -124 22 -53 19 -74 -20
-156 -40 -83 -43 -101 -16 -108 35 -9 32 -43 -13 -213 -30 -113 -50 -142 -102
-154 -21 -5 -41 -11 -43 -13 -2 -1 9 -22 25 -45 32 -49 35 -95 10 -161 -15
-41 -15 -45 4 -82 11 -22 20 -51 20 -65 0 -46 -41 -149 -76 -191 -42 -50 -43
-67 -5 -80 44 -15 96 -99 126 -204 15 -49 35 -117 45 -150 9 -33 27 -76 38
-95 30 -50 240 -241 372 -338 57 -42 152 -102 162 -102 24 0 8 26 -63 99 -44
46 -94 108 -112 137 -80 135 -87 150 -87 188 0 51 -34 120 -70 146 -73 52
-101 154 -104 385 -1 58 14 67 70 40 20 -9 38 -15 40 -12 2 2 -19 44 -46 93
-68 120 -94 208 -87 288 7 74 39 168 73 218 21 29 24 40 15 57 -23 43 -13 98
40 219 l23 52 -22 16 c-18 12 -22 25 -22 68 0 29 6 61 14 71 14 19 14 19 36 0
19 -17 21 -28 17 -68 -3 -34 0 -50 8 -54 7 -2 16 -20 19 -39 4 -19 13 -34 21
-34 25 0 45 -31 45 -70 0 -31 6 -43 31 -63 16 -13 41 -46 53 -73 l23 -49 23
48 c27 57 44 67 71 41 45 -46 59 -244 29 -405 -6 -29 -10 -58 -10 -65 0 -29
18 -12 39 35 80 187 92 516 30 805 -37 169 -61 218 -73 145 -4 -23 -16 -55
-27 -71 -21 -29 -21 -32 -2 -105 8 -33 -19 -39 -71 -15 -40 19 -44 25 -51 68
-10 72 -21 94 -47 94 -30 0 -44 24 -58 101 -6 34 -18 72 -26 83 -10 15 -12 37
-8 84 6 51 4 63 -7 62 -30 -5 -40 1 -61 35 -16 28 -25 34 -40 29 -13 -4 -24
-1 -29 7 -15 24 -10 46 11 52 15 4 20 14 20 39 0 46 26 81 56 75 18 -3 24 1
26 17 2 16 10 21 31 21 26 -1 27 1 27 50 0 54 9 72 51 97 21 13 25 22 21 47
-3 20 3 43 17 66 12 20 21 47 21 61 0 29 24 80 52 111 l20 22 -21 44 c-28 57
-28 128 1 178 18 32 20 43 10 64 -32 69 -8 59 68 -31 79 -92 89 -110 90 -151
0 -27 -5 -34 -25 -39 l-25 -6 20 -25 c26 -33 26 -92 0 -162 -10 -29 -21 -56
-24 -59 -3 -2 1 -17 9 -33 20 -38 19 -57 -7 -124 -13 -35 -30 -61 -45 -69
l-25 -12 36 -30 c19 -16 49 -40 66 -53 30 -22 31 -26 25 -71 -5 -38 -3 -54 12
-76 15 -23 17 -42 14 -108 -10 -175 -7 -221 10 -218 30 4 42 -30 133 -388 30
-118 66 -240 80 -270 19 -39 25 -47 21 -25 -3 17 -9 60 -14 97 -5 37 -16 80
-24 95 -26 49 -38 110 -31 166 4 37 1 71 -10 109 -23 82 -21 143 6 162 27 19
49 8 83 -42 l25 -37 0 42 c0 82 71 77 86 -6 4 -20 11 -45 17 -56 5 -10 15 -40
22 -66 14 -52 5 -79 -25 -79 -10 0 -21 -4 -24 -8 -2 -4 34 -66 81 -137 46 -72
100 -161 118 -200 19 -38 52 -97 73 -130 99 -151 221 -353 235 -386 8 -20 20
-40 26 -43 6 -4 21 -26 32 -49 12 -23 29 -51 39 -62 11 -11 29 -56 41 -100 38
-140 77 -226 132 -290 28 -33 57 -64 64 -68 7 -4 23 -27 34 -50 12 -23 42 -73
68 -112 25 -38 60 -99 79 -135 19 -36 48 -88 65 -117 18 -28 52 -84 76 -125
24 -40 52 -85 62 -99 27 -40 89 -165 89 -180 0 -17 80 -159 80 -143 0 28 -101
306 -120 329 -5 6 -17 33 -28 60 -21 54 -130 305 -181 420 -29 64 -68 142
-170 340 -20 39 -50 104 -66 145 -16 41 -33 80 -37 86 -5 7 -18 45 -29 85 -11
41 -24 78 -29 84 -4 5 -24 52 -44 103 -35 90 -77 166 -103 187 -16 13 -68 120
-81 167 -5 20 -24 72 -42 117 -29 73 -35 81 -59 81 -49 0 -59 18 -99 185 -36
149 -41 161 -66 170 -30 10 -43 46 -72 194 -14 73 -15 102 -7 148 13 73 9 83
-33 83 -40 0 -44 18 -17 75 16 33 16 38 0 83 -25 69 -22 108 14 163 23 36 28
52 21 65 -11 20 0 53 35 101 15 21 22 43 21 65 -3 31 -1 33 30 33 33 0 34 1
28 33 -4 26 2 47 25 88 27 47 34 53 55 48 32 -8 30 5 -6 51 -38 48 -38 69 5
135 19 30 35 58 35 62 0 4 -12 8 -27 10 -26 3 -28 7 -31 52 -3 39 3 62 27 110
17 34 42 73 56 88 28 31 32 55 10 84 -20 26 -19 64 4 132 11 31 25 86 31 122
12 71 30 112 91 202 40 61 42 78 10 78 -30 0 -40 21 -77 171 -43 170 -96 290
-182 404 -64 86 -118 142 -128 133 -6 -7 39 -93 84 -162 61 -92 115 -245 142
-406 24 -137 25 -208 6 -255 -18 -42 -31 -44 -68 -8 l-28 27 0 -92 c0 -67 -5
-106 -20 -145 -21 -55 -54 -100 -80 -109 -10 -3 -13 -17 -12 -42 2 -29 -3 -43
-27 -66 -54 -55 -131 -33 -131 37 0 21 -15 50 -49 94 -36 48 -55 86 -76 154
-15 50 -31 103 -36 119 -19 61 -5 152 38 243 l24 53 -33 57 c-32 57 -33 60
-38 207 -5 159 -2 151 -63 175 -19 7 -34 27 -51 64 -13 29 -38 64 -55 78 -74
56 -90 76 -115 144 -14 39 -26 78 -26 87 0 32 -13 49 -51 69 -38 19 -39 21
-39 72 -1 30 -7 60 -15 71 -42 55 12 199 119 320 31 35 33 56 7 56 -21 0 -107
-91 -144 -152 -12 -20 -39 -60 -59 -89 -44 -64 -59 -128 -46 -196 5 -27 7 -68
4 -93 -3 -25 -2 -74 2 -110 l7 -64 39 -8 c49 -10 76 -34 76 -66 0 -54 23 -103
54 -116 58 -25 91 -83 102 -181 8 -62 23 -85 58 -85 37 0 46 -19 46 -96 0 -39
7 -91 15 -114 18 -51 20 -131 3 -148 -7 -7 -20 -12 -29 -12 -21 0 -117 124
-125 162 -7 32 -64 91 -64 66 0 -9 15 -38 34 -65 57 -83 102 -184 115 -258 18
-105 39 -163 62 -170 33 -11 59 -86 59 -170 0 -60 -3 -76 -17 -84 -17 -10 -16
-12 7 -31 14 -11 30 -20 36 -20 6 0 21 -9 34 -20 13 -11 28 -20 35 -20 6 0 20
-6 31 -14 19 -15 19 -15 -1 -29 -17 -13 -18 -18 -7 -41 33 -73 1 -116 -86
-116 -116 0 -244 94 -289 213 -15 38 -19 64 -14 88 8 35 11 36 69 24 41 -10
43 8 1 25 -23 10 -35 10 -52 1 -42 -22 -98 15 -172 113 -17 22 -47 61 -67 87
-20 26 -42 58 -49 71 -29 54 -170 221 -278 329 -130 129 -240 215 -328 255
-32 15 -62 29 -68 32 -12 6 29 -33 126 -118 141 -124 250 -254 314 -375 21
-38 48 -88 61 -111 36 -63 54 -124 54 -183 0 -42 5 -59 25 -83 13 -16 42 -59
62 -96 32 -57 38 -76 38 -129 0 -70 -22 -110 -69 -126 -22 -7 -34 -5 -54 10
-15 11 -47 23 -72 27 -60 9 -107 40 -130 86 -24 47 -23 46 -82 55 -41 6 -48 5
-48 -10 0 -9 -6 -15 -12 -12 -7 2 -13 14 -13 27 0 20 -15 33 -85 71 -57 31
-93 59 -110 83 -15 22 -45 46 -75 60 -28 13 -64 39 -82 57 -37 39 -153 217
-153 235 0 29 26 34 108 23 90 -12 123 -8 77 10 -128 51 -176 80 -345 215
-158 125 -187 153 -201 194 -9 28 -8 38 10 68 27 45 20 55 -62 86 -78 29 -141
89 -158 150 -13 49 -7 274 9 323 5 17 22 68 37 115 51 158 139 294 289 448 66
68 59 79 -19 28z m1477 -2088 c8 -22 -17 -93 -32 -93 -23 0 -25 63 -4 86 20
22 30 24 36 7z m53 -265 c26 -39 33 -73 15 -73 -20 0 -79 45 -84 64 -6 22 10
46 30 46 7 0 25 -17 39 -37z m597 -139 c9 -19 9 -33 0 -58 -7 -18 -12 -39 -12
-46 0 -8 -12 -27 -27 -42 l-27 -28 22 -20 c31 -30 27 -61 -13 -100 -31 -30
-34 -37 -28 -76 4 -33 1 -49 -14 -71 -16 -22 -18 -33 -10 -50 12 -28 -15 -147
-39 -174 -15 -17 -15 -21 -2 -41 39 -60 27 -139 -23 -157 -34 -12 -66 1 -149
63 -41 30 -45 36 -45 77 0 38 4 45 28 57 l28 14 -24 41 c-21 36 -24 55 -24
134 l-1 93 39 44 c35 40 37 44 19 49 -32 8 -28 77 7 111 26 27 26 27 9 57 -29
50 3 66 59 29 30 -20 74 -27 76 -12 1 4 3 16 4 27 5 44 18 65 57 94 46 34 70
30 90 -15z m-1203 -12 c58 -24 64 -24 73 -9 21 38 65 11 121 -73 16 -24 31
-35 48 -35 13 0 30 -4 37 -8 20 -13 33 -56 23 -74 -5 -10 -4 -28 5 -49 18 -43
18 -98 -1 -114 -8 -6 -29 -12 -47 -13 -29 -2 -33 -6 -39 -38 -5 -35 -39 -92
-69 -117 -38 -31 -116 16 -104 64 5 19 -4 33 -50 74 -71 65 -116 143 -116 199
0 23 -5 51 -10 62 -9 15 -7 21 5 25 19 8 19 28 -1 59 -10 15 -13 32 -8 47 13
45 25 45 133 0z m688 -628 c9 -23 -13 -40 -32 -24 -12 10 -13 16 -4 26 15 18
28 18 36 -2z m-752 -44 c10 -11 16 -22 13 -25 -9 -9 -33 4 -46 25 -17 28 8 27
33 0z m175 -417 c0 -24 -4 -43 -9 -43 -10 0 -23 88 -15 102 11 17 24 -15 24
-59z"/>
<path d="M7610 6464 c0 -3 35 -44 78 -92 116 -130 145 -170 190 -252 90 -169
133 -328 136 -505 1 -95 -2 -115 -20 -150 -33 -61 -67 -89 -144 -119 -38 -15
-70 -32 -70 -38 0 -5 9 -21 20 -35 31 -40 25 -74 -22 -135 -44 -56 -164 -169
-208 -196 -14 -9 -34 -24 -45 -33 -34 -30 -212 -117 -254 -124 -23 -4 -41 -11
-41 -16 0 -12 90 -11 169 2 52 8 67 7 78 -4 17 -16 14 -22 -55 -149 -56 -103
-91 -139 -159 -170 -36 -16 -43 -24 -48 -56 -17 -102 -39 -133 -129 -187 -15
-9 -14 -14 11 -48 24 -34 27 -47 28 -120 0 -84 -9 -116 -66 -220 -13 -25 -18
-46 -13 -60 4 -12 7 -54 7 -92 0 -110 -41 -169 -98 -143 -25 11 -29 9 -68 -34
-77 -85 -117 -90 -176 -20 -48 54 -65 108 -58 173 5 37 2 47 -14 57 -23 14
-24 31 -5 57 12 16 16 17 30 6 21 -18 39 -3 56 48 13 39 12 40 -24 74 -31 30
-36 40 -36 81 0 41 -5 52 -49 100 -95 105 -94 214 2 355 32 46 36 58 31 91
-10 60 13 135 78 260 80 152 159 259 290 391 60 60 107 109 105 109 -10 0 -64
-26 -92 -44 -16 -11 -52 -34 -80 -52 -60 -38 -233 -208 -318 -312 -33 -41 -97
-135 -141 -207 -84 -138 -123 -188 -168 -218 -15 -9 -35 -31 -43 -47 -19 -36
-34 -37 -83 -6 -63 40 -77 72 -62 140 5 23 12 53 15 67 3 17 15 31 35 39 30
12 33 18 45 95 17 103 23 124 43 157 21 34 30 78 15 78 -4 0 -25 -17 -46 -37
-36 -35 -39 -36 -32 -13 4 14 9 39 12 57 4 27 2 32 -19 35 -21 3 -24 10 -31
78 -12 115 -8 134 28 140 27 4 32 12 50 66 11 34 27 69 35 79 8 10 26 38 40
64 14 25 37 52 52 59 17 8 30 24 33 40 16 81 30 107 63 118 55 17 57 25 55
149 -2 76 2 130 12 162 14 47 14 48 -22 118 -20 38 -50 88 -67 109 -36 46
-138 146 -148 146 -12 0 -9 -17 5 -32 21 -21 108 -208 114 -243 4 -24 -1 -41
-16 -62 -18 -25 -20 -34 -11 -57 14 -39 5 -62 -30 -74 -36 -13 -44 -29 -64
-122 -15 -74 -16 -76 -89 -145 -55 -52 -77 -80 -86 -112 -10 -35 -17 -43 -49
-54 -60 -19 -63 -24 -56 -98 6 -79 -5 -126 -30 -126 -10 0 -37 25 -60 55 -88
115 -366 328 -366 281 0 -6 49 -62 110 -125 120 -123 201 -227 241 -308 52
-105 79 -192 82 -258 2 -63 1 -65 -24 -68 -14 -2 -31 4 -39 12 -12 15 -40 22
-40 11 0 -3 9 -23 20 -44 26 -53 34 -107 25 -186 -5 -53 -13 -73 -36 -99 -25
-29 -29 -42 -29 -90 0 -72 -18 -86 -110 -82 -36 2 -68 1 -73 -1 -4 -2 4 -18
18 -35 30 -35 23 -51 -31 -68 -38 -13 -40 -17 -19 -44 32 -43 5 -97 -54 -109
-41 -8 -135 16 -181 47 -22 15 -57 49 -77 77 -24 34 -39 47 -46 40 -16 -16 11
-95 53 -154 47 -67 54 -85 32 -90 -12 -2 6 -26 71 -88 83 -80 101 -109 76
-125 -7 -4 3 -18 24 -35 36 -29 67 -98 67 -147 0 -14 15 -41 35 -64 35 -38 35
-39 29 -106 -5 -55 -4 -65 7 -54 18 16 54 15 69 -2 21 -26 29 -127 13 -160
-13 -26 -13 -32 2 -61 22 -39 16 -59 -55 -200 -28 -55 -50 -103 -50 -108 0 -5
9 -6 19 -2 27 8 34 -21 26 -103 -8 -68 -18 -99 -41 -117 -15 -12 -56 -111 -96
-230 -17 -49 -34 -94 -38 -99 -5 -4 -23 -11 -41 -15 -30 -6 -34 -12 -55 -79
-12 -39 -28 -82 -36 -94 -8 -13 -27 -63 -41 -113 -27 -90 -51 -125 -86 -125
-22 0 -54 -58 -75 -135 -16 -58 -23 -74 -80 -196 -14 -31 -26 -63 -26 -71 0
-8 -13 -34 -28 -59 -45 -70 -182 -339 -182 -356 0 -8 -19 -54 -41 -102 -23
-47 -52 -114 -65 -148 -13 -35 -37 -87 -53 -115 -52 -96 -154 -348 -181 -452
-12 -43 -25 -88 -31 -98 -6 -11 -8 -24 -6 -31 5 -16 42 44 66 108 10 28 62
134 114 236 108 212 228 397 371 574 49 62 95 152 111 220 10 39 25 96 35 127
19 58 103 192 151 240 34 35 88 118 123 190 15 31 47 79 71 106 25 27 61 83
81 123 38 76 227 337 251 346 7 3 13 14 13 24 0 17 -3 18 -21 8 -17 -9 -24 -8
-36 4 -23 23 1 116 46 177 20 28 48 68 63 90 25 35 32 40 68 40 44 0 44 0 54
99 4 35 14 67 31 91 14 20 25 42 25 49 0 15 49 61 66 61 8 0 14 -16 16 -42 3
-35 5 -39 12 -23 5 11 21 36 35 55 22 30 26 44 23 97 -2 62 5 78 46 102 15 9
14 13 -12 34 -24 20 -27 28 -22 54 6 26 3 34 -13 43 -25 13 -27 53 -9 142 l12
59 -33 26 -33 26 7 88 c8 94 -3 118 -23 51 -6 -21 -32 -70 -58 -110 -54 -85
-69 -150 -36 -159 11 -2 25 -17 32 -32 20 -50 12 -208 -12 -238 -6 -7 -19 -13
-30 -13 -10 0 -21 -7 -24 -15 -3 -8 -16 -17 -27 -21 -12 -3 -32 -16 -45 -27
-40 -37 -56 -15 -66 94 -8 89 -7 94 13 107 11 8 21 18 21 22 0 3 -22 29 -50
57 -27 28 -50 58 -50 67 0 8 13 22 29 30 16 9 31 22 34 31 9 21 30 19 52 -5
18 -20 19 -20 47 22 40 59 70 119 64 125 -3 3 -17 -2 -30 -11 -30 -19 -55 -22
-117 -12 -35 6 -48 4 -58 -8 -17 -20 -45 -20 -76 0 -28 18 -77 118 -73 149 1
12 -5 34 -15 48 -10 15 -15 32 -12 37 8 13 47 13 81 0 37 -15 51 0 35 39 -17
41 -6 84 32 120 55 55 124 31 134 -48 5 -33 1 -48 -16 -71 -11 -16 -21 -33
-21 -37 0 -16 44 -113 51 -113 5 0 17 21 29 46 11 26 36 68 55 95 40 57 85
142 85 164 0 9 -9 15 -23 15 -64 0 -72 194 -10 238 96 69 151 86 183 57 26
-24 26 -89 0 -140 -27 -52 -25 -67 10 -105 34 -37 39 -77 14 -115 -15 -23 -15
-27 0 -50 9 -14 21 -54 26 -88 5 -34 16 -87 25 -117 11 -36 15 -76 11 -114 -3
-46 -1 -62 11 -71 8 -6 21 -42 29 -80 21 -102 22 -104 44 -67 33 54 90 36 90
-29 0 -12 14 -37 30 -56 23 -25 30 -44 30 -73 0 -35 -5 -43 -42 -70 -45 -33
-84 -38 -114 -15 -28 21 -34 18 -34 -17 0 -18 -6 -44 -13 -58 -8 -14 -18 -34
-24 -45 -5 -11 -19 -39 -31 -62 -28 -53 -40 -156 -22 -178 16 -19 8 -95 -27
-260 -34 -161 -42 -376 -19 -529 23 -150 35 -201 52 -222 15 -18 15 -18 10 1
-3 11 -10 76 -17 145 -9 98 -8 138 2 185 7 33 14 89 17 125 2 36 7 70 12 75 4
6 11 31 14 58 4 26 15 55 25 65 14 13 21 44 29 132 6 63 24 165 40 225 25 99
30 110 50 109 12 0 22 3 22 7 0 4 13 21 29 38 36 39 73 41 89 6 17 -36 15 -52
-12 -131 l-25 -69 23 -20 c13 -11 28 -40 34 -65 19 -74 32 -272 22 -315 -14
-58 -12 -65 14 -75 37 -14 63 -59 85 -152 27 -110 27 -168 1 -201 -25 -32 -25
-47 3 -99 48 -92 9 -278 -79 -377 -45 -50 -69 -90 -60 -98 3 -3 19 0 35 7 16
6 39 9 51 5 26 -8 25 -37 -8 -181 -22 -97 -52 -152 -117 -214 -39 -37 -75 -98
-75 -127 0 -44 -84 -157 -205 -277 -54 -54 -66 -71 -52 -74 14 -3 109 44 142
70 6 5 44 30 85 56 160 103 260 181 299 234 17 24 40 70 50 103 45 143 87 207
163 246 51 26 54 35 24 77 -57 82 -72 197 -32 241 15 16 16 25 6 62 -14 52 -6
100 20 124 28 26 25 40 -15 65 -19 12 -39 29 -44 38 -13 25 -37 126 -52 220
-13 83 -13 84 10 101 l22 17 -30 83 c-32 85 -38 125 -21 136 6 4 10 62 10 140
0 150 17 249 54 323 25 50 119 144 220 222 32 25 100 84 150 132 64 61 113 98
161 122 39 18 98 56 133 84 35 28 109 74 165 102 56 27 149 84 206 125 58 41
114 75 125 75 61 0 225 179 298 325 86 170 116 361 99 615 -6 88 -15 170 -20
182 -4 13 -11 46 -15 73 -9 62 -27 115 -39 115 -5 0 -7 -17 -4 -37 38 -234 -5
-620 -85 -778 -69 -135 -188 -267 -318 -352 -103 -68 -143 -87 -227 -109 -59
-15 -78 -16 -109 -6 -20 6 -41 9 -46 6 -4 -3 -8 -23 -8 -44 0 -32 -8 -48 -50
-96 -27 -31 -50 -60 -50 -64 0 -3 -17 -16 -39 -28 -21 -12 -50 -39 -64 -61
-28 -42 -85 -80 -157 -106 -25 -9 -56 -28 -70 -43 -14 -16 -52 -46 -86 -69
-62 -42 -88 -67 -90 -87 0 -6 -2 -17 -2 -23 -3 -19 -63 -47 -72 -34 -4 8 -28
-9 -65 -44 -61 -57 -73 -62 -106 -45 -16 9 -19 22 -19 78 0 60 -2 68 -22 77
-16 7 -24 20 -26 42 -3 27 2 34 27 47 16 9 32 25 36 36 9 27 65 68 104 76 23
5 37 2 51 -11 18 -16 21 -16 75 10 52 26 59 27 97 16 49 -15 61 -4 47 43 -13
43 -3 80 42 159 21 38 46 94 55 125 24 82 51 132 72 132 10 0 29 -11 42 -25
13 -14 27 -25 32 -25 4 0 8 38 8 83 0 87 15 146 61 239 12 26 20 50 17 54 -4
3 -20 -2 -37 -12 -29 -17 -32 -17 -48 -1 -16 16 -16 20 2 69 19 53 63 125 89
147 9 8 27 10 45 6 29 -6 30 -5 50 60 28 96 64 143 118 157 24 6 47 18 52 27
5 9 11 49 14 90 11 138 89 241 143 190 21 -20 21 -20 32 8 6 15 16 46 21 67
16 60 72 112 150 137 93 30 102 41 67 78 -32 34 -61 120 -70 211 -36 351 -53
427 -133 608 -55 122 -121 219 -222 325 -81 85 -221 187 -221 161z m-841
-3708 c27 -32 38 -186 13 -186 -11 0 -50 91 -57 131 -9 60 15 90 44 55z m171
-86 c0 -27 -4 -50 -10 -50 -11 0 -14 59 -4 84 10 27 14 18 14 -34z"/>
<path d="M3906 5425 c3 -22 10 -49 14 -60 13 -29 48 -189 59 -270 15 -106 23
-346 13 -380 -5 -20 -16 -31 -30 -33 -20 -3 -22 -9 -22 -61 0 -71 -30 -189
-59 -229 -11 -17 -21 -45 -21 -64 0 -18 -7 -44 -16 -57 -15 -20 -23 -23 -65
-19 -29 3 -49 1 -49 -5 0 -6 20 -40 44 -76 42 -63 44 -70 49 -158 l6 -93 -34
-32 c-102 -100 -113 -108 -149 -108 -27 0 -34 -3 -30 -15 7 -18 -61 -90 -76
-80 -19 12 -10 46 19 76 24 24 29 35 25 62 -4 19 1 44 10 62 9 17 16 36 16 44
0 7 12 35 27 61 29 52 27 68 -5 51 -36 -19 -95 -13 -134 14 -39 26 -88 115
-88 159 0 37 -17 40 -29 4 -16 -45 -14 -98 8 -166 19 -63 15 -89 -14 -78 -21
8 -18 -6 17 -102 l23 -64 -32 -27 c-26 -22 -33 -35 -33 -63 0 -27 -9 -47 -36
-79 -20 -24 -45 -50 -55 -57 -12 -9 -19 -25 -19 -48 0 -28 -9 -45 -45 -83 -25
-26 -45 -51 -45 -54 0 -3 15 -4 33 -3 32 1 32 1 30 -43 -1 -24 -14 -67 -28
-96 -29 -60 -31 -78 -10 -95 20 -16 19 -38 -5 -146 -11 -49 -20 -111 -20 -137
0 -42 2 -48 18 -43 11 4 25 -1 34 -11 9 -10 62 -155 118 -323 95 -282 156
-437 167 -426 9 9 -39 192 -70 266 -24 57 -31 87 -30 133 2 40 -9 98 -33 185
-46 168 -49 266 -11 365 22 56 25 74 18 107 -5 21 -6 41 -4 44 3 3 7 37 8 76
4 79 23 120 56 120 17 0 20 4 15 23 -20 64 -18 92 6 113 12 12 42 24 66 27 39
5 46 2 69 -24 15 -16 36 -29 48 -29 13 0 28 -7 35 -15 16 -19 7 -81 -14 -104
-14 -16 -14 -22 1 -59 15 -39 15 -45 -1 -86 -17 -45 -17 -45 8 -83 14 -21 33
-60 42 -88 20 -64 42 -113 54 -120 5 -3 9 27 9 74 0 80 12 122 49 164 14 16
13 21 -6 61 -12 24 -22 54 -22 67 0 28 33 103 49 113 7 5 7 12 -1 25 -9 15 -7
27 11 61 12 23 20 45 17 47 -3 3 -19 0 -37 -6 -38 -13 -89 -14 -89 -2 0 15
-78 51 -111 51 -33 0 -48 22 -29 45 7 8 23 15 36 15 14 0 35 13 51 30 14 17
35 30 46 30 11 0 35 14 54 30 41 36 57 30 73 -31 6 -22 14 -39 18 -39 4 0 19
22 35 49 20 37 27 63 27 104 0 33 8 75 21 106 21 49 21 52 4 71 -28 31 -16
139 25 223 29 60 31 70 20 96 -7 17 -10 50 -7 78 21 193 30 244 57 324 35 104
35 107 14 130 -14 15 -31 97 -54 254 -9 62 -25 149 -33 175 -29 96 -45 140
-59 165 l-17 29 5 -39z"/>
<path d="M4755 5383 c9 -21 22 -44 29 -53 38 -42 173 -347 222 -499 24 -76 17
-131 -18 -131 -18 0 -19 -5 -14 -37 17 -101 18 -209 3 -245 -11 -25 -14 -54
-10 -90 6 -63 -8 -82 -63 -82 -33 0 -46 -17 -24 -31 18 -11 10 -35 -15 -45
-22 -9 -24 -13 -18 -60 7 -56 -9 -83 -54 -95 -36 -9 -105 35 -140 90 -15 24
-32 44 -36 45 -15 0 4 -82 29 -133 16 -30 22 -56 18 -71 -5 -20 5 -36 50 -85
42 -46 56 -68 56 -91 0 -17 10 -44 22 -60 14 -19 23 -49 26 -87 3 -36 12 -68
25 -85 20 -28 20 -47 -4 -105 -16 -40 -10 -47 26 -29 52 27 73 -1 71 -96 -1
-37 -7 -63 -18 -75 -15 -17 -15 -20 3 -42 30 -37 26 -55 -51 -216 -21 -44 -41
-96 -44 -115 l-7 -35 25 30 c21 24 28 27 38 17 19 -19 26 -166 17 -317 -4 -71
-8 -197 -7 -280 1 -163 7 -149 28 64 18 187 57 240 74 100 8 -64 10 -70 17
-44 5 17 14 66 19 110 23 169 80 348 115 362 22 8 27 0 33 -53 6 -54 10 -49
48 57 34 97 85 153 131 146 33 -6 43 5 43 45 0 11 7 35 16 54 28 60 83 36 84
-36 1 -64 15 -67 44 -9 14 30 31 62 38 72 11 14 9 28 -10 81 -24 70 -27 117
-11 185 8 36 7 48 -8 69 -45 62 -53 79 -53 113 0 43 -21 72 -69 97 -28 14 -39
29 -58 81 -41 109 -88 165 -179 211 -36 18 -72 43 -80 56 -21 31 -10 99 27
183 34 75 36 102 9 126 -29 27 -38 67 -45 220 -5 108 -3 149 8 180 8 22 17 61
21 88 7 45 6 47 -17 47 -33 0 -48 19 -112 145 -98 192 -184 328 -239 378 -27
24 -28 22 -11 -20z m362 -1531 c18 -13 44 -48 59 -78 21 -42 31 -54 50 -54 28
0 89 -51 111 -93 10 -21 13 -43 9 -70 -6 -37 -4 -43 29 -72 41 -39 44 -60 11
-108 -15 -22 -22 -44 -19 -56 6 -24 -21 -71 -41 -71 -7 0 -21 -9 -31 -20 -10
-11 -28 -20 -40 -20 -12 0 -31 -13 -43 -30 -42 -56 -62 -37 -81 71 -16 93 -14
110 9 116 11 3 20 9 20 13 0 10 -51 60 -61 60 -13 0 -49 42 -49 58 0 8 -18 34
-40 58 -22 24 -40 53 -40 64 0 11 -9 43 -20 72 -11 29 -20 64 -20 78 0 14 -10
34 -21 44 -34 28 -9 44 36 23 49 -23 52 -22 47 17 -3 27 0 35 15 38 25 6 72
-11 110 -40z"/>
<path d="M7130 5290 c0 -13 11 -13 30 0 12 8 11 10 -7 10 -13 0 -23 -4 -23
-10z"/>
<path d="M2320 5278 c0 -17 49 -76 50 -60 0 19 -29 72 -40 72 -6 0 -10 -6 -10
-12z"/>
<path d="M4374 5190 c2 -19 13 -78 25 -130 58 -257 68 -374 35 -387 -11 -4
-12 -24 -8 -92 4 -52 2 -108 -6 -141 -6 -30 -15 -83 -19 -117 -10 -75 -23 -93
-67 -93 -32 0 -33 -1 -24 -25 12 -31 4 -52 -22 -61 -16 -5 -18 -12 -13 -44 12
-69 -29 -110 -89 -90 -44 14 -63 36 -91 106 l-23 58 -8 -40 c-4 -23 -2 -61 5
-94 18 -75 18 -95 4 -93 -19 4 -16 -11 17 -91 30 -72 31 -100 5 -110 -11 -4
-11 -11 -3 -33 9 -25 6 -38 -21 -93 -19 -39 -30 -73 -27 -86 4 -14 -7 -37 -34
-74 -46 -61 -47 -64 -21 -50 28 15 58 12 65 -5 8 -22 -17 -136 -38 -166 -15
-23 -15 -28 -1 -39 23 -19 18 -83 -14 -168 -51 -132 -63 -208 -29 -174 45 45
62 -7 138 -433 20 -113 70 -319 76 -313 1 2 -4 48 -12 103 -20 136 -28 275
-18 285 16 16 35 -6 60 -71 l25 -64 -8 110 c-15 212 2 388 39 411 16 10 38
-25 38 -60 0 -17 4 -38 10 -46 12 -19 15 -10 29 85 15 92 35 135 76 163 27 19
37 21 54 13 22 -12 22 -12 36 72 6 40 35 77 60 77 21 0 44 -50 51 -114 4 -31
10 -56 14 -56 4 0 10 21 13 46 3 30 16 63 37 92 l31 45 -17 63 c-16 59 -15
114 2 158 4 10 1 16 -8 16 -8 0 -23 6 -33 14 -18 13 -18 18 -6 67 l14 52 -32
26 c-22 19 -31 35 -31 56 0 52 -15 61 -38 23 -11 -18 -29 -42 -39 -53 -54 -58
-67 -99 -34 -108 13 -3 20 -18 25 -57 6 -45 4 -58 -13 -81 -12 -16 -21 -39
-21 -52 0 -27 -17 -47 -41 -47 -10 0 -31 -11 -47 -25 -17 -14 -39 -25 -50 -25
-11 0 -22 -6 -25 -14 -3 -8 -18 -23 -32 -32 -39 -25 -52 -5 -61 88 -7 86 1
108 42 108 34 0 30 20 -11 60 -19 19 -35 41 -35 50 0 22 20 40 44 40 11 0 30
10 43 22 21 20 24 20 41 5 10 -10 21 -17 25 -17 8 0 107 94 107 101 0 10 -147
0 -177 -12 -26 -10 -34 -10 -47 0 -18 15 -22 101 -6 131 8 14 7 25 -2 40 -17
27 1 46 30 31 39 -21 52 -14 52 27 0 41 26 100 52 116 45 27 79 -73 42 -128
-17 -26 -7 -91 13 -91 15 0 71 106 90 169 14 45 13 49 -6 70 -30 32 -36 108
-16 209 16 81 16 86 -1 112 -26 40 -31 288 -8 414 17 88 17 94 0 103 -22 12
-30 34 -73 203 -20 77 -42 151 -50 165 -14 25 -14 25 -9 -10z"/>
<path d="M2540 4432 c0 -10 33 -22 60 -22 13 1 13 2 0 9 -27 16 -60 22 -60 13z"/>
</g>
</svg>
